# xmcd
#
# Track frame offsets:
#   150
#   62718
#   132565
#   277729
#
# Disc length: 4250 seconds
#
# Revision: 0
# Processed by: cddbd v1.5.1PL2 Copyright (c) Steve Scherf et al.
# Submitted via: GXTranscoder 2.0.1939
#
DISCID=35109804
DTITLE=NEA ELLHNIKA - NEA ELLHNIKA
DYEAR=1900
DGENRE=Alternative
TTITLE0=12
TTITLE1=13
TTITLE2=14
TTITLE3=15
EXTD=
EXTT0=
EXTT1=
EXTT2=
EXTT3=
PLAYORDER=
